// === Articulação: Racktom1_Center ===

// --- Mic: Overhead_L ---
<group> seq_position=1 output=6 pan=-100 // Round-Robin: A
<region> sample=Racktom1_Center_A_vel01_mic-Overhead_L.wav lovel=0 hivel=13
<region> sample=Racktom1_Center_A_vel02_mic-Overhead_L.wav lovel=14 hivel=27
<region> sample=Racktom1_Center_A_vel03_mic-Overhead_L.wav lovel=28 hivel=41
<region> sample=Racktom1_Center_A_vel04_mic-Overhead_L.wav lovel=42 hivel=55
<region> sample=Racktom1_Center_A_vel05_mic-Overhead_L.wav lovel=56 hivel=69
<region> sample=Racktom1_Center_A_vel06_mic-Overhead_L.wav lovel=70 hivel=83
<region> sample=Racktom1_Center_A_vel07_mic-Overhead_L.wav lovel=84 hivel=97
<region> sample=Racktom1_Center_A_vel08_mic-Overhead_L.wav lovel=98 hivel=111
<region> sample=Racktom1_Center_A_vel09_mic-Overhead_L.wav lovel=112 hivel=127
<group> seq_position=2 output=6 pan=-100 // Round-Robin: B
<region> sample=Racktom1_Center_B_vel01_mic-Overhead_L.wav lovel=0 hivel=13
<region> sample=Racktom1_Center_B_vel02_mic-Overhead_L.wav lovel=14 hivel=27
<region> sample=Racktom1_Center_B_vel03_mic-Overhead_L.wav lovel=28 hivel=41
<region> sample=Racktom1_Center_B_vel04_mic-Overhead_L.wav lovel=42 hivel=55
<region> sample=Racktom1_Center_B_vel05_mic-Overhead_L.wav lovel=56 hivel=69
<region> sample=Racktom1_Center_B_vel06_mic-Overhead_L.wav lovel=70 hivel=83
<region> sample=Racktom1_Center_B_vel07_mic-Overhead_L.wav lovel=84 hivel=97
<region> sample=Racktom1_Center_B_vel08_mic-Overhead_L.wav lovel=98 hivel=111
<region> sample=Racktom1_Center_B_vel09_mic-Overhead_L.wav lovel=112 hivel=127
<group> seq_position=3 output=6 pan=-100 // Round-Robin: C
<region> sample=Racktom1_Center_C_vel01_mic-Overhead_L.wav lovel=0 hivel=13
<region> sample=Racktom1_Center_C_vel02_mic-Overhead_L.wav lovel=14 hivel=27
<region> sample=Racktom1_Center_C_vel03_mic-Overhead_L.wav lovel=28 hivel=41
<region> sample=Racktom1_Center_C_vel04_mic-Overhead_L.wav lovel=42 hivel=55
<region> sample=Racktom1_Center_C_vel05_mic-Overhead_L.wav lovel=56 hivel=69
<region> sample=Racktom1_Center_C_vel06_mic-Overhead_L.wav lovel=70 hivel=83
<region> sample=Racktom1_Center_C_vel07_mic-Overhead_L.wav lovel=84 hivel=97
<region> sample=Racktom1_Center_C_vel08_mic-Overhead_L.wav lovel=98 hivel=111
<region> sample=Racktom1_Center_C_vel09_mic-Overhead_L.wav lovel=112 hivel=127
<group> seq_position=4 output=6 pan=-100 // Round-Robin: D
<region> sample=Racktom1_Center_D_vel01_mic-Overhead_L.wav lovel=0 hivel=13
<region> sample=Racktom1_Center_D_vel02_mic-Overhead_L.wav lovel=14 hivel=27
<region> sample=Racktom1_Center_D_vel03_mic-Overhead_L.wav lovel=28 hivel=41
<region> sample=Racktom1_Center_D_vel04_mic-Overhead_L.wav lovel=42 hivel=55
<region> sample=Racktom1_Center_D_vel05_mic-Overhead_L.wav lovel=56 hivel=69
<region> sample=Racktom1_Center_D_vel06_mic-Overhead_L.wav lovel=70 hivel=83
<region> sample=Racktom1_Center_D_vel07_mic-Overhead_L.wav lovel=84 hivel=97
<region> sample=Racktom1_Center_D_vel08_mic-Overhead_L.wav lovel=98 hivel=111
<region> sample=Racktom1_Center_D_vel09_mic-Overhead_L.wav lovel=112 hivel=127

// --- Mic: Overhead_R ---
<group> seq_position=1 output=6 pan=100 // Round-Robin: A
<region> sample=Racktom1_Center_A_vel01_mic-Overhead_R.wav lovel=0 hivel=13
<region> sample=Racktom1_Center_A_vel02_mic-Overhead_R.wav lovel=14 hivel=27
<region> sample=Racktom1_Center_A_vel03_mic-Overhead_R.wav lovel=28 hivel=41
<region> sample=Racktom1_Center_A_vel04_mic-Overhead_R.wav lovel=42 hivel=55
<region> sample=Racktom1_Center_A_vel05_mic-Overhead_R.wav lovel=56 hivel=69
<region> sample=Racktom1_Center_A_vel06_mic-Overhead_R.wav lovel=70 hivel=83
<region> sample=Racktom1_Center_A_vel07_mic-Overhead_R.wav lovel=84 hivel=97
<region> sample=Racktom1_Center_A_vel08_mic-Overhead_R.wav lovel=98 hivel=111
<region> sample=Racktom1_Center_A_vel09_mic-Overhead_R.wav lovel=112 hivel=127
<group> seq_position=2 output=6 pan=100 // Round-Robin: B
<region> sample=Racktom1_Center_B_vel01_mic-Overhead_R.wav lovel=0 hivel=13
<region> sample=Racktom1_Center_B_vel02_mic-Overhead_R.wav lovel=14 hivel=27
<region> sample=Racktom1_Center_B_vel03_mic-Overhead_R.wav lovel=28 hivel=41
<region> sample=Racktom1_Center_B_vel04_mic-Overhead_R.wav lovel=42 hivel=55
<region> sample=Racktom1_Center_B_vel05_mic-Overhead_R.wav lovel=56 hivel=69
<region> sample=Racktom1_Center_B_vel06_mic-Overhead_R.wav lovel=70 hivel=83
<region> sample=Racktom1_Center_B_vel07_mic-Overhead_R.wav lovel=84 hivel=97
<region> sample=Racktom1_Center_B_vel08_mic-Overhead_R.wav lovel=98 hivel=111
<region> sample=Racktom1_Center_B_vel09_mic-Overhead_R.wav lovel=112 hivel=127
<group> seq_position=3 output=6 pan=100 // Round-Robin: C
<region> sample=Racktom1_Center_C_vel01_mic-Overhead_R.wav lovel=0 hivel=13
<region> sample=Racktom1_Center_C_vel02_mic-Overhead_R.wav lovel=14 hivel=27
<region> sample=Racktom1_Center_C_vel03_mic-Overhead_R.wav lovel=28 hivel=41
<region> sample=Racktom1_Center_C_vel04_mic-Overhead_R.wav lovel=42 hivel=55
<region> sample=Racktom1_Center_C_vel05_mic-Overhead_R.wav lovel=56 hivel=69
<region> sample=Racktom1_Center_C_vel06_mic-Overhead_R.wav lovel=70 hivel=83
<region> sample=Racktom1_Center_C_vel07_mic-Overhead_R.wav lovel=84 hivel=97
<region> sample=Racktom1_Center_C_vel08_mic-Overhead_R.wav lovel=98 hivel=111
<region> sample=Racktom1_Center_C_vel09_mic-Overhead_R.wav lovel=112 hivel=127
<group> seq_position=4 output=6 pan=100 // Round-Robin: D
<region> sample=Racktom1_Center_D_vel01_mic-Overhead_R.wav lovel=0 hivel=13
<region> sample=Racktom1_Center_D_vel02_mic-Overhead_R.wav lovel=14 hivel=27
<region> sample=Racktom1_Center_D_vel03_mic-Overhead_R.wav lovel=28 hivel=41
<region> sample=Racktom1_Center_D_vel04_mic-Overhead_R.wav lovel=42 hivel=55
<region> sample=Racktom1_Center_D_vel05_mic-Overhead_R.wav lovel=56 hivel=69
<region> sample=Racktom1_Center_D_vel06_mic-Overhead_R.wav lovel=70 hivel=83
<region> sample=Racktom1_Center_D_vel07_mic-Overhead_R.wav lovel=84 hivel=97
<region> sample=Racktom1_Center_D_vel08_mic-Overhead_R.wav lovel=98 hivel=111
<region> sample=Racktom1_Center_D_vel09_mic-Overhead_R.wav lovel=112 hivel=127

// --- Mic: Racktom_1 ---
<group> seq_position=1 // Round-Robin: A
<region> sample=Racktom1_Center_A_vel01_mic-Racktom_1.wav lovel=0 hivel=13
<region> sample=Racktom1_Center_A_vel02_mic-Racktom_1.wav lovel=14 hivel=27
<region> sample=Racktom1_Center_A_vel03_mic-Racktom_1.wav lovel=28 hivel=41
<region> sample=Racktom1_Center_A_vel04_mic-Racktom_1.wav lovel=42 hivel=55
<region> sample=Racktom1_Center_A_vel05_mic-Racktom_1.wav lovel=56 hivel=69
<region> sample=Racktom1_Center_A_vel06_mic-Racktom_1.wav lovel=70 hivel=83
<region> sample=Racktom1_Center_A_vel07_mic-Racktom_1.wav lovel=84 hivel=97
<region> sample=Racktom1_Center_A_vel08_mic-Racktom_1.wav lovel=98 hivel=111
<region> sample=Racktom1_Center_A_vel09_mic-Racktom_1.wav lovel=112 hivel=127
<group> seq_position=2 // Round-Robin: B
<region> sample=Racktom1_Center_B_vel01_mic-Racktom_1.wav lovel=0 hivel=13
<region> sample=Racktom1_Center_B_vel02_mic-Racktom_1.wav lovel=14 hivel=27
<region> sample=Racktom1_Center_B_vel03_mic-Racktom_1.wav lovel=28 hivel=41
<region> sample=Racktom1_Center_B_vel04_mic-Racktom_1.wav lovel=42 hivel=55
<region> sample=Racktom1_Center_B_vel05_mic-Racktom_1.wav lovel=56 hivel=69
<region> sample=Racktom1_Center_B_vel06_mic-Racktom_1.wav lovel=70 hivel=83
<region> sample=Racktom1_Center_B_vel07_mic-Racktom_1.wav lovel=84 hivel=97
<region> sample=Racktom1_Center_B_vel08_mic-Racktom_1.wav lovel=98 hivel=111
<region> sample=Racktom1_Center_B_vel09_mic-Racktom_1.wav lovel=112 hivel=127
<group> seq_position=3 // Round-Robin: C
<region> sample=Racktom1_Center_C_vel01_mic-Racktom_1.wav lovel=0 hivel=13
<region> sample=Racktom1_Center_C_vel02_mic-Racktom_1.wav lovel=14 hivel=27
<region> sample=Racktom1_Center_C_vel03_mic-Racktom_1.wav lovel=28 hivel=41
<region> sample=Racktom1_Center_C_vel04_mic-Racktom_1.wav lovel=42 hivel=55
<region> sample=Racktom1_Center_C_vel05_mic-Racktom_1.wav lovel=56 hivel=69
<region> sample=Racktom1_Center_C_vel06_mic-Racktom_1.wav lovel=70 hivel=83
<region> sample=Racktom1_Center_C_vel07_mic-Racktom_1.wav lovel=84 hivel=97
<region> sample=Racktom1_Center_C_vel08_mic-Racktom_1.wav lovel=98 hivel=111
<region> sample=Racktom1_Center_C_vel09_mic-Racktom_1.wav lovel=112 hivel=127
<group> seq_position=4 // Round-Robin: D
<region> sample=Racktom1_Center_D_vel01_mic-Racktom_1.wav lovel=0 hivel=13
<region> sample=Racktom1_Center_D_vel02_mic-Racktom_1.wav lovel=14 hivel=27
<region> sample=Racktom1_Center_D_vel03_mic-Racktom_1.wav lovel=28 hivel=41
<region> sample=Racktom1_Center_D_vel04_mic-Racktom_1.wav lovel=42 hivel=55
<region> sample=Racktom1_Center_D_vel05_mic-Racktom_1.wav lovel=56 hivel=69
<region> sample=Racktom1_Center_D_vel06_mic-Racktom_1.wav lovel=70 hivel=83
<region> sample=Racktom1_Center_D_vel07_mic-Racktom_1.wav lovel=84 hivel=97
<region> sample=Racktom1_Center_D_vel08_mic-Racktom_1.wav lovel=98 hivel=111
<region> sample=Racktom1_Center_D_vel09_mic-Racktom_1.wav lovel=112 hivel=127

// --- Mic: Snare_Bottom ---
<group> seq_position=1 output=1 // Round-Robin: A
<region> sample=Racktom1_Center_A_vel01_mic-Snare_Bottom.wav lovel=0 hivel=13
<region> sample=Racktom1_Center_A_vel02_mic-Snare_Bottom.wav lovel=14 hivel=27
<region> sample=Racktom1_Center_A_vel03_mic-Snare_Bottom.wav lovel=28 hivel=41
<region> sample=Racktom1_Center_A_vel04_mic-Snare_Bottom.wav lovel=42 hivel=55
<region> sample=Racktom1_Center_A_vel05_mic-Snare_Bottom.wav lovel=56 hivel=69
<region> sample=Racktom1_Center_A_vel06_mic-Snare_Bottom.wav lovel=70 hivel=83
<region> sample=Racktom1_Center_A_vel07_mic-Snare_Bottom.wav lovel=84 hivel=97
<region> sample=Racktom1_Center_A_vel08_mic-Snare_Bottom.wav lovel=98 hivel=111
<region> sample=Racktom1_Center_A_vel09_mic-Snare_Bottom.wav lovel=112 hivel=127
<group> seq_position=2 output=1 // Round-Robin: B
<region> sample=Racktom1_Center_B_vel01_mic-Snare_Bottom.wav lovel=0 hivel=13
<region> sample=Racktom1_Center_B_vel02_mic-Snare_Bottom.wav lovel=14 hivel=27
<region> sample=Racktom1_Center_B_vel03_mic-Snare_Bottom.wav lovel=28 hivel=41
<region> sample=Racktom1_Center_B_vel04_mic-Snare_Bottom.wav lovel=42 hivel=55
<region> sample=Racktom1_Center_B_vel05_mic-Snare_Bottom.wav lovel=56 hivel=69
<region> sample=Racktom1_Center_B_vel06_mic-Snare_Bottom.wav lovel=70 hivel=83
<region> sample=Racktom1_Center_B_vel07_mic-Snare_Bottom.wav lovel=84 hivel=97
<region> sample=Racktom1_Center_B_vel08_mic-Snare_Bottom.wav lovel=98 hivel=111
<region> sample=Racktom1_Center_B_vel09_mic-Snare_Bottom.wav lovel=112 hivel=127
<group> seq_position=3 output=1 // Round-Robin: C
<region> sample=Racktom1_Center_C_vel01_mic-Snare_Bottom.wav lovel=0 hivel=13
<region> sample=Racktom1_Center_C_vel02_mic-Snare_Bottom.wav lovel=14 hivel=27
<region> sample=Racktom1_Center_C_vel03_mic-Snare_Bottom.wav lovel=28 hivel=41
<region> sample=Racktom1_Center_C_vel04_mic-Snare_Bottom.wav lovel=42 hivel=55
<region> sample=Racktom1_Center_C_vel05_mic-Snare_Bottom.wav lovel=56 hivel=69
<region> sample=Racktom1_Center_C_vel06_mic-Snare_Bottom.wav lovel=70 hivel=83
<region> sample=Racktom1_Center_C_vel07_mic-Snare_Bottom.wav lovel=84 hivel=97
<region> sample=Racktom1_Center_C_vel08_mic-Snare_Bottom.wav lovel=98 hivel=111
<region> sample=Racktom1_Center_C_vel09_mic-Snare_Bottom.wav lovel=112 hivel=127
<group> seq_position=4 output=1 // Round-Robin: D
<region> sample=Racktom1_Center_D_vel01_mic-Snare_Bottom.wav lovel=0 hivel=13
<region> sample=Racktom1_Center_D_vel02_mic-Snare_Bottom.wav lovel=14 hivel=27
<region> sample=Racktom1_Center_D_vel03_mic-Snare_Bottom.wav lovel=28 hivel=41
<region> sample=Racktom1_Center_D_vel04_mic-Snare_Bottom.wav lovel=42 hivel=55
<region> sample=Racktom1_Center_D_vel05_mic-Snare_Bottom.wav lovel=56 hivel=69
<region> sample=Racktom1_Center_D_vel06_mic-Snare_Bottom.wav lovel=70 hivel=83
<region> sample=Racktom1_Center_D_vel07_mic-Snare_Bottom.wav lovel=84 hivel=97
<region> sample=Racktom1_Center_D_vel08_mic-Snare_Bottom.wav lovel=98 hivel=111
<region> sample=Racktom1_Center_D_vel09_mic-Snare_Bottom.wav lovel=112 hivel=127
